<svg width="100" height="100" viewBox="0 0 100 100" fill="none" xmlns="http://www.w3.org/2000/svg">
<path d="M59.6095 29.9562C63.5278 27.3015 66.7931 26.0057 67.936 25.6897C64.7663 32.6426 55.9737 47.212 46.161 49.8668C46.0331 50.324 45.9137 50.7861 45.8035 51.2529C41.5438 69.5673 58.6293 76.7133 67.936 78.0001L50.0584 82.3399C48.2819 77.5 45.328 67.3115 45.0696 58.8739C34.4173 55.6503 23.2251 47.2595 21 41.8078C21.5714 41.4127 28.2625 38.2049 34.1401 41.8078C40.0176 45.4106 43.8754 54.6864 45.0696 58.8739C45.0074 56.8433 45.1013 54.9141 45.4054 53.1852C45.5201 52.5328 45.6533 51.8885 45.8035 51.2529C45.9093 50.7978 46.0283 50.3358 46.161 49.8668C48.8319 40.3193 55.2091 32.9376 59.6095 29.9562Z" fill="#FD8246"/>
<path d="M46.161 49.8668C45.859 50.9463 45.6044 52.0535 45.4054 53.1852C45.1013 54.9141 45.0074 56.8433 45.0696 58.8739M46.161 49.8668C48.8319 40.3193 55.2091 32.9376 59.6095 29.9562C63.5278 27.3015 66.7931 26.0057 67.936 25.6897C64.7663 32.6426 55.9737 47.212 46.161 49.8668ZM46.161 49.8668C40.6898 69.2085 58.398 76.6813 67.936 78.0001L50.0584 82.3399C48.2819 77.5 45.328 67.3115 45.0696 58.8739M45.0696 58.8739C43.8754 54.6864 40.0176 45.4106 34.1401 41.8078C28.2625 38.2049 21.5714 41.4127 21 41.8078C23.2251 47.2595 34.4173 55.6503 45.0696 58.8739Z" stroke="#FD8246" stroke-width="3"/>
<circle cx="49.505" cy="49.505" r="48.005" stroke="white" stroke-width="3"/>
<path d="M90.5099 42.5C90.5099 64.5579 72.1874 82.5 49.5099 82.5C26.8323 82.5 8.50989 64.5579 8.50989 42.5C8.50989 20.4421 26.8323 2.5 49.5099 2.5C72.1874 2.5 90.5099 20.4421 90.5099 42.5Z" stroke="white" stroke-width="3"/>
<path d="M11.5099 27.5C12.7099 24.3 16.3432 19.1667 18.0099 17L22.0099 12C18.5099 15.1667 11.0099 22.3 9.00987 25.5C6.50987 29.5 3.50983 38.5 2.00983 48C0.509834 57.5 7.00987 69 6.50987 71C6.00987 73 18.0099 85.5 22.0099 89C26.0099 92.5 37.5099 96 45.0099 98C52.5099 100 69.0099 94 71.0099 93.5C73.0099 93 85.5099 82.5 86.5099 80C87.5099 77.5 94.5099 69 96.5099 61.5C98.5099 54 95.0099 38 94.5099 34C94.1099 30.8 86.0099 20.3333 82.0099 15.5C83.6765 19.5 87.2099 27.9 88.0099 29.5C89.0099 31.5 90.0099 40.5 90.0099 45.5C90.0099 49.5 87.0099 57.8333 85.5099 61.5C84.0099 64.5 79.0099 71.8 71.0099 77C61.0099 83.5 47.0099 83 41.5099 82.5C36.0099 82 29.5099 78 22.0099 72.5C14.5099 67 10.0099 54 9.00987 48C8.00987 42 10.0099 31.5 11.5099 27.5Z" fill="white"/>
</svg>
