<svg width="100" height="100" viewBox="0 0 100 100" fill="none" xmlns="http://www.w3.org/2000/svg">
<path d="M18.098 53.588C13 55.9409 7.80392 63.0651 5.84314 66.3331C18.1242 66.6563 30.2408 84.3254 46.5 84.5C67.2327 84.7226 91.1539 67.3221 92.3628 66.3331C94.5196 64.5684 84.7647 57.1011 79.6177 53.588C77.0033 54.8135 71.3824 57.5095 69.8137 58.4899C67.8529 59.7154 54.3726 43.539 52.1667 43.0488C49.9608 42.5586 37.7059 60.9409 34.2745 60.6958C30.8431 60.4508 24.4706 50.6468 18.098 53.588Z" fill="#FD8246"/>
<circle cx="49.505" cy="49.505" r="48.005" stroke="white" stroke-width="3"/>
<path d="M90.5099 42.5C90.5099 64.5579 72.1874 82.5 49.5099 82.5C26.8323 82.5 8.50989 64.5579 8.50989 42.5C8.50989 20.4421 26.8323 2.5 49.5099 2.5C72.1874 2.5 90.5099 20.4421 90.5099 42.5Z" stroke="white" stroke-width="3"/>
<path d="M11.5099 27.5C12.7099 24.3 16.3432 19.1667 18.0099 17L22.0099 12C18.5099 15.1667 11.0099 22.3 9.00987 25.5C6.50987 29.5 3.50983 38.5 2.00983 48C0.509834 57.5 7.00987 69 6.50987 71C6.00987 73 18.0099 85.5 22.0099 89C26.0099 92.5 37.5099 96 45.0099 98C52.5099 100 69.0099 94 71.0099 93.5C73.0099 93 85.5099 82.5 86.5099 80C87.5099 77.5 94.5099 69 96.5099 61.5C98.5099 54 95.0099 38 94.5099 34C94.1099 30.8 86.0099 20.3333 82.0099 15.5C83.6765 19.5 87.2099 27.9 88.0099 29.5C89.0099 31.5 90.0099 40.5 90.0099 45.5C90.0099 49.5 87.0099 57.8333 85.5099 61.5C84.0099 64.5 79.0099 71.8 71.0099 77C61.0099 83.5 47.0099 83 41.5099 82.5C36.0099 82 29.5099 78 22.0099 72.5C14.5099 67 10.0099 54 9.00987 48C8.00987 42 10.0099 31.5 11.5099 27.5Z" fill="white"/>
</svg>
