<svg width="100" height="100" viewBox="0 0 100 100" fill="none" xmlns="http://www.w3.org/2000/svg">
<path d="M57.4519 44.4884H70.5929C71.3817 44.4884 72.0492 43.79 71.9972 42.9647C71.5551 36.0896 68.1485 30.0672 63.1122 26.2578C62.4708 25.7771 61.5606 25.9948 61.1446 26.6932L54.1753 38.339C56.1343 39.636 57.4519 41.8944 57.4519 44.4884ZM54.1753 50.6288C53.1091 51.3271 51.8522 51.7534 50.5 51.7534C49.1478 51.7534 47.8995 51.3271 46.8247 50.6288L39.8554 62.2836C39.4394 62.982 39.6474 63.9253 40.3409 64.3153C43.3661 66.0204 46.8247 67 50.5 67C54.1753 67 57.6339 66.0204 60.6591 64.3153C61.3526 63.9253 61.5606 62.9729 61.1446 62.2836L54.1753 50.6288ZM50.5 48.842C52.7971 48.842 54.6607 46.8919 54.6607 44.4884C54.6607 42.0849 52.7971 40.1348 50.5 40.1348C48.2029 40.1348 46.3393 42.0849 46.3393 44.4884C46.3393 46.8919 48.2029 48.842 50.5 48.842ZM30.4071 44.4884H43.5481C43.5481 41.8944 44.8657 39.636 46.8247 38.3481L39.8554 26.7023C39.4394 26.0039 38.5292 25.7771 37.8878 26.2669C32.8515 30.0763 29.4449 36.0987 29.0028 42.9737C28.9508 43.79 29.6183 44.4884 30.4071 44.4884V44.4884Z" fill="#FD8246"/>
<circle cx="50.4951" cy="49.505" r="48.005" stroke="white" stroke-width="3"/>
<path d="M91.5 42.5C91.5 64.5579 73.1775 82.5 50.5 82.5C27.8225 82.5 9.5 64.5579 9.5 42.5C9.5 20.4421 27.8225 2.5 50.5 2.5C73.1775 2.5 91.5 20.4421 91.5 42.5Z" stroke="white" stroke-width="3"/>
<path d="M12.5 27.5C13.7 24.3 17.3333 19.1667 19 17L23 12C19.5 15.1667 12 22.3 9.99998 25.5C7.49998 29.5 4.49995 38.5 2.99995 48C1.49995 57.5 7.99998 69 7.49998 71C6.99998 73 19 85.5 23 89C27 92.5 38.5 96 46 98C53.5 100 70 94 72 93.5C74 93 86.5 82.5 87.5 80C88.5 77.5 95.5 69 97.5 61.5C99.5 54 96 38 95.5 34C95.1 30.8 87 20.3333 83 15.5C84.6666 19.5 88.2 27.9 89 29.5C90 31.5 91 40.5 91 45.5C91 49.5 88 57.8333 86.5 61.5C85 64.5 80 71.8 72 77C62 83.5 48 83 42.5 82.5C37 82 30.5 78 23 72.5C15.5 67 11 54 9.99998 48C8.99998 42 11 31.5 12.5 27.5Z" fill="white"/>
</svg>
